{
    "asset" : {
        "generator" : "Khronos glTF Blender I/O v0.9.36",
        "version" : "2.0"
    },
    "scene" : 0,
    "scenes" : [
        {
            "name" : "Scene",
            "nodes" : [
                3
            ]
        }
    ],
    "nodes" : [
        {
            "mesh" : 0,
            "name" : "character_duckArmLeft",
            "translation" : [
                0.20404481887817383,
                0.6335563659667969,
                0
            ]
        },
        {
            "mesh" : 1,
            "name" : "character_duckArmRight",
            "translation" : [
                -0.20404601097106934,
                0.6335563063621521,
                0
            ]
        },
        {
            "mesh" : 2,
            "name" : "character_duckHead",
            "translation" : [
                0,
                0.7037110328674316,
                0
            ]
        },
        {
            "children" : [
                0,
                1,
                2
            ],
            "mesh" : 3,
            "name" : "character_duck"
        }
    ],
    "materials" : [
        {
            "name" : "White",
            "pbrMetallicRoughness" : {
                "baseColorFactor" : [
                    0.799102783203125,
                    0.799102783203125,
                    0.799102783203125,
                    1
                ],
                "metallicFactor" : 0,
                "roughnessFactor" : 0.5
            }
        },
        {
            "name" : "Yellow",
            "pbrMetallicRoughness" : {
                "baseColorFactor" : [
                    1,
                    0.5052202939987183,
                    0.017695415765047073,
                    1
                ],
                "metallicFactor" : 0,
                "roughnessFactor" : 0.20000000298023224
            }
        },
        {
            "name" : "Black",
            "pbrMetallicRoughness" : {
                "baseColorFactor" : [
                    0.019794002175331116,
                    0.03207586705684662,
                    0.037408243864774704,
                    1
                ],
                "metallicFactor" : 0,
                "roughnessFactor" : 0.5
            }
        }
    ],
    "meshes" : [
        {
            "name" : "Cube.5105",
            "primitives" : [
                {
                    "attributes" : {
                        "POSITION" : 0,
                        "NORMAL" : 1,
                        "TEXCOORD_0" : 2
                    },
                    "indices" : 3,
                    "material" : 0
                }
            ]
        },
        {
            "name" : "Cube.5104",
            "primitives" : [
                {
                    "attributes" : {
                        "POSITION" : 4,
                        "NORMAL" : 5,
                        "TEXCOORD_0" : 6
                    },
                    "indices" : 7,
                    "material" : 0
                }
            ]
        },
        {
            "name" : "Cube.1338",
            "primitives" : [
                {
                    "attributes" : {
                        "POSITION" : 8,
                        "NORMAL" : 9,
                        "TEXCOORD_0" : 10
                    },
                    "indices" : 11,
                    "material" : 0
                },
                {
                    "attributes" : {
                        "POSITION" : 12,
                        "NORMAL" : 13,
                        "TEXCOORD_0" : 14
                    },
                    "indices" : 15,
                    "material" : 1
                },
                {
                    "attributes" : {
                        "POSITION" : 16,
                        "NORMAL" : 17,
                        "TEXCOORD_0" : 18
                    },
                    "indices" : 19,
                    "material" : 2
                }
            ]
        },
        {
            "name" : "Cube.5103",
            "primitives" : [
                {
                    "attributes" : {
                        "POSITION" : 20,
                        "NORMAL" : 21,
                        "TEXCOORD_0" : 22
                    },
                    "indices" : 23,
                    "material" : 0
                }
            ]
        }
    ],
    "accessors" : [
        {
            "bufferView" : 0,
            "componentType" : 5126,
            "count" : 199,
            "max" : [
                0.26490139961242676,
                0.09418356418609619,
                0.09058663994073868
            ],
            "min" : [
                -0.11533478647470474,
                -0.47665560245513916,
                -0.0905865803360939
            ],
            "type" : "VEC3"
        },
        {
            "bufferView" : 1,
            "componentType" : 5126,
            "count" : 199,
            "type" : "VEC3"
        },
        {
            "bufferView" : 2,
            "componentType" : 5126,
            "count" : 199,
            "type" : "VEC2"
        },
        {
            "bufferView" : 3,
            "componentType" : 5123,
            "count" : 978,
            "type" : "SCALAR"
        },
        {
            "bufferView" : 4,
            "componentType" : 5126,
            "count" : 216,
            "max" : [
                0.11533510684967041,
                0.09418362379074097,
                0.09058663249015808
            ],
            "min" : [
                -0.26490116119384766,
                -0.4766555428504944,
                -0.0905865952372551
            ],
            "type" : "VEC3"
        },
        {
            "bufferView" : 5,
            "componentType" : 5126,
            "count" : 216,
            "type" : "VEC3"
        },
        {
            "bufferView" : 6,
            "componentType" : 5126,
            "count" : 216,
            "type" : "VEC2"
        },
        {
            "bufferView" : 7,
            "componentType" : 5123,
            "count" : 978,
            "type" : "SCALAR"
        },
        {
            "bufferView" : 8,
            "componentType" : 5126,
            "count" : 665,
            "max" : [
                0.49999964237213135,
                1.1882190704345703,
                0.4999997019767761
            ],
            "min" : [
                -0.4999997615814209,
                0,
                -0.49999961256980896
            ],
            "type" : "VEC3"
        },
        {
            "bufferView" : 9,
            "componentType" : 5126,
            "count" : 665,
            "type" : "VEC3"
        },
        {
            "bufferView" : 10,
            "componentType" : 5126,
            "count" : 665,
            "type" : "VEC2"
        },
        {
            "bufferView" : 11,
            "componentType" : 5123,
            "count" : 2988,
            "type" : "SCALAR"
        },
        {
            "bufferView" : 12,
            "componentType" : 5126,
            "count" : 170,
            "max" : [
                0.2863595485687256,
                0.4807014465332031,
                0.654973566532135
            ],
            "min" : [
                -0.2863594889640808,
                0.1799512505531311,
                0.32956019043922424
            ],
            "type" : "VEC3"
        },
        {
            "bufferView" : 13,
            "componentType" : 5126,
            "count" : 170,
            "type" : "VEC3"
        },
        {
            "bufferView" : 14,
            "componentType" : 5126,
            "count" : 170,
            "type" : "VEC2"
        },
        {
            "bufferView" : 15,
            "componentType" : 5123,
            "count" : 936,
            "type" : "SCALAR"
        },
        {
            "bufferView" : 16,
            "componentType" : 5126,
            "count" : 108,
            "max" : [
                0.33058083057403564,
                0.4932206869125366,
                0.468027800321579
            ],
            "min" : [
                -0.33058077096939087,
                0.35582518577575684,
                0.3631858825683594
            ],
            "type" : "VEC3"
        },
        {
            "bufferView" : 17,
            "componentType" : 5126,
            "count" : 108,
            "type" : "VEC3"
        },
        {
            "bufferView" : 18,
            "componentType" : 5126,
            "count" : 108,
            "type" : "VEC2"
        },
        {
            "bufferView" : 19,
            "componentType" : 5123,
            "count" : 396,
            "type" : "SCALAR"
        },
        {
            "bufferView" : 20,
            "componentType" : 5126,
            "count" : 387,
            "max" : [
                0.33807387948036194,
                0.7255613207817078,
                0.3499997556209564
            ],
            "min" : [
                -0.33807387948036194,
                -2.2351741790771484e-08,
                -0.42082837224006653
            ],
            "type" : "VEC3"
        },
        {
            "bufferView" : 21,
            "componentType" : 5126,
            "count" : 387,
            "type" : "VEC3"
        },
        {
            "bufferView" : 22,
            "componentType" : 5126,
            "count" : 387,
            "type" : "VEC2"
        },
        {
            "bufferView" : 23,
            "componentType" : 5123,
            "count" : 1740,
            "type" : "SCALAR"
        }
    ],
    "bufferViews" : [
        {
            "buffer" : 0,
            "byteLength" : 2388,
            "byteOffset" : 0
        },
        {
            "buffer" : 0,
            "byteLength" : 2388,
            "byteOffset" : 2388
        },
        {
            "buffer" : 0,
            "byteLength" : 1592,
            "byteOffset" : 4776
        },
        {
            "buffer" : 0,
            "byteLength" : 1956,
            "byteOffset" : 6368
        },
        {
            "buffer" : 0,
            "byteLength" : 2592,
            "byteOffset" : 8324
        },
        {
            "buffer" : 0,
            "byteLength" : 2592,
            "byteOffset" : 10916
        },
        {
            "buffer" : 0,
            "byteLength" : 1728,
            "byteOffset" : 13508
        },
        {
            "buffer" : 0,
            "byteLength" : 1956,
            "byteOffset" : 15236
        },
        {
            "buffer" : 0,
            "byteLength" : 7980,
            "byteOffset" : 17192
        },
        {
            "buffer" : 0,
            "byteLength" : 7980,
            "byteOffset" : 25172
        },
        {
            "buffer" : 0,
            "byteLength" : 5320,
            "byteOffset" : 33152
        },
        {
            "buffer" : 0,
            "byteLength" : 5976,
            "byteOffset" : 38472
        },
        {
            "buffer" : 0,
            "byteLength" : 2040,
            "byteOffset" : 44448
        },
        {
            "buffer" : 0,
            "byteLength" : 2040,
            "byteOffset" : 46488
        },
        {
            "buffer" : 0,
            "byteLength" : 1360,
            "byteOffset" : 48528
        },
        {
            "buffer" : 0,
            "byteLength" : 1872,
            "byteOffset" : 49888
        },
        {
            "buffer" : 0,
            "byteLength" : 1296,
            "byteOffset" : 51760
        },
        {
            "buffer" : 0,
            "byteLength" : 1296,
            "byteOffset" : 53056
        },
        {
            "buffer" : 0,
            "byteLength" : 864,
            "byteOffset" : 54352
        },
        {
            "buffer" : 0,
            "byteLength" : 792,
            "byteOffset" : 55216
        },
        {
            "buffer" : 0,
            "byteLength" : 4644,
            "byteOffset" : 56008
        },
        {
            "buffer" : 0,
            "byteLength" : 4644,
            "byteOffset" : 60652
        },
        {
            "buffer" : 0,
            "byteLength" : 3096,
            "byteOffset" : 65296
        },
        {
            "buffer" : 0,
            "byteLength" : 3480,
            "byteOffset" : 68392
        }
    ],
    "buffers" : [
        {
            "byteLength" : 71872,
            "uri" : "data:application/octet-stream;base64,"
        }
    ]
}
